M48
INCH,TZ
T1C0.0315
T2C0.0394
T3C0.0512
T4C0.1250
%
G90
G05
T1
X47016Y-32814
X47839Y-35279
X47843Y-38130
X48016Y-32814
X48839Y-35279
X48843Y-38130
X49839Y-35279
X49843Y-38130
X50401Y-31528
X53166Y-35252
X53192Y-38118
X53354Y-31528
X54166Y-35252
X54192Y-38118
X54505Y-31787
X55166Y-35252
X55192Y-38118
X55490Y-31787
T2
X47258Y-31602
X48258Y-31602
X49258Y-31602
T3
X44220Y-32028
X44220Y-34028
X44220Y-36028
X44220Y-38028
X58689Y-32937
X58689Y-34937
X58689Y-36937
T4
X41250Y-31250
X41250Y-38750
X61250Y-31250
X61250Y-38750
T0
M30
