%TF.GenerationSoftware,KiCad,Pcbnew,(6.0.0)*%
%TF.CreationDate,2022-02-19T20:02:02-08:00*%
%TF.ProjectId,P82B715-I2C-Bus-Extender-Carrier,50383242-3731-4352-9d49-32432d427573,rev?*%
%TF.SameCoordinates,Original*%
%TF.FileFunction,Legend,Top*%
%TF.FilePolarity,Positive*%
%FSLAX46Y46*%
G04 Gerber Fmt 4.6, Leading zero omitted, Abs format (unit mm)*
G04 Created by KiCad (PCBNEW (6.0.0)) date 2022-02-19 20:02:02*
%MOMM*%
%LPD*%
G01*
G04 APERTURE LIST*
%ADD10C,0.150000*%
%ADD11C,0.120000*%
G04 APERTURE END LIST*
D10*
X155710816Y-90126312D02*
X155758435Y-89983455D01*
X155758435Y-89745359D01*
X155710816Y-89650121D01*
X155663197Y-89602502D01*
X155567959Y-89554883D01*
X155472721Y-89554883D01*
X155377483Y-89602502D01*
X155329864Y-89650121D01*
X155282245Y-89745359D01*
X155234626Y-89935836D01*
X155187007Y-90031074D01*
X155139388Y-90078693D01*
X155044150Y-90126312D01*
X154948912Y-90126312D01*
X154853674Y-90078693D01*
X154806055Y-90031074D01*
X154758435Y-89935836D01*
X154758435Y-89697740D01*
X154806055Y-89554883D01*
X155663197Y-88554883D02*
X155710816Y-88602502D01*
X155758435Y-88745359D01*
X155758435Y-88840597D01*
X155710816Y-88983455D01*
X155615578Y-89078693D01*
X155520340Y-89126312D01*
X155329864Y-89173931D01*
X155187007Y-89173931D01*
X154996531Y-89126312D01*
X154901293Y-89078693D01*
X154806055Y-88983455D01*
X154758435Y-88840597D01*
X154758435Y-88745359D01*
X154806055Y-88602502D01*
X154853674Y-88554883D01*
X155758435Y-87650121D02*
X155758435Y-88126312D01*
X154758435Y-88126312D01*
X157368435Y-89102502D02*
X157368435Y-89578693D01*
X156368435Y-89578693D01*
X156368435Y-88864407D02*
X157368435Y-88197740D01*
X156368435Y-88197740D02*
X157368435Y-88864407D01*
X155563435Y-83858824D02*
X155563435Y-84335014D01*
X156039626Y-84382633D01*
X155992007Y-84335014D01*
X155944388Y-84239776D01*
X155944388Y-84001681D01*
X155992007Y-83906443D01*
X156039626Y-83858824D01*
X156134864Y-83811205D01*
X156372959Y-83811205D01*
X156468197Y-83858824D01*
X156515816Y-83906443D01*
X156563435Y-84001681D01*
X156563435Y-84239776D01*
X156515816Y-84335014D01*
X156468197Y-84382633D01*
X155563435Y-83525490D02*
X156563435Y-83192157D01*
X155563435Y-82858824D01*
X155710816Y-95104892D02*
X155758435Y-94962035D01*
X155758435Y-94723940D01*
X155710816Y-94628702D01*
X155663197Y-94581083D01*
X155567959Y-94533464D01*
X155472721Y-94533464D01*
X155377483Y-94581083D01*
X155329864Y-94628702D01*
X155282245Y-94723940D01*
X155234626Y-94914416D01*
X155187007Y-95009654D01*
X155139388Y-95057273D01*
X155044150Y-95104892D01*
X154948912Y-95104892D01*
X154853674Y-95057273D01*
X154806055Y-95009654D01*
X154758435Y-94914416D01*
X154758435Y-94676321D01*
X154806055Y-94533464D01*
X155758435Y-94104892D02*
X154758435Y-94104892D01*
X154758435Y-93866797D01*
X154806055Y-93723940D01*
X154901293Y-93628702D01*
X154996531Y-93581083D01*
X155187007Y-93533464D01*
X155329864Y-93533464D01*
X155520340Y-93581083D01*
X155615578Y-93628702D01*
X155710816Y-93723940D01*
X155758435Y-93866797D01*
X155758435Y-94104892D01*
X155472721Y-93152511D02*
X155472721Y-92676321D01*
X155758435Y-93247749D02*
X154758435Y-92914416D01*
X155758435Y-92581083D01*
X157368435Y-94057273D02*
X157368435Y-94533464D01*
X156368435Y-94533464D01*
X156368435Y-93819178D02*
X157368435Y-93152511D01*
X156368435Y-93152511D02*
X157368435Y-93819178D01*
X106863476Y-85659779D02*
X106911095Y-85564541D01*
X106911095Y-85421684D01*
X106863476Y-85278826D01*
X106768237Y-85183588D01*
X106672999Y-85135969D01*
X106482523Y-85088350D01*
X106339666Y-85088350D01*
X106149190Y-85135969D01*
X106053952Y-85183588D01*
X105958714Y-85278826D01*
X105911095Y-85421684D01*
X105911095Y-85516922D01*
X105958714Y-85659779D01*
X106006333Y-85707398D01*
X106339666Y-85707398D01*
X106339666Y-85516922D01*
X105911095Y-86135969D02*
X106911095Y-86135969D01*
X105911095Y-86707398D01*
X106911095Y-86707398D01*
X105911095Y-87183588D02*
X106911095Y-87183588D01*
X106911095Y-87421684D01*
X106863476Y-87564541D01*
X106768237Y-87659779D01*
X106672999Y-87707398D01*
X106482523Y-87755017D01*
X106339666Y-87755017D01*
X106149190Y-87707398D01*
X106053952Y-87659779D01*
X105958714Y-87564541D01*
X105911095Y-87421684D01*
X105911095Y-87183588D01*
X106911095Y-82384829D02*
X106911095Y-81908639D01*
X106434904Y-81861020D01*
X106482523Y-81908639D01*
X106530142Y-82003877D01*
X106530142Y-82241972D01*
X106482523Y-82337210D01*
X106434904Y-82384829D01*
X106339666Y-82432448D01*
X106101571Y-82432448D01*
X106006333Y-82384829D01*
X105958714Y-82337210D01*
X105911095Y-82241972D01*
X105911095Y-82003877D01*
X105958714Y-81908639D01*
X106006333Y-81861020D01*
X106911095Y-82718163D02*
X105911095Y-83051496D01*
X106911095Y-83384829D01*
X106083800Y-90422254D02*
X106036181Y-90565111D01*
X106036181Y-90803207D01*
X106083800Y-90898445D01*
X106131419Y-90946064D01*
X106226657Y-90993683D01*
X106321895Y-90993683D01*
X106417133Y-90946064D01*
X106464752Y-90898445D01*
X106512371Y-90803207D01*
X106559990Y-90612731D01*
X106607609Y-90517492D01*
X106655228Y-90469873D01*
X106750466Y-90422254D01*
X106845704Y-90422254D01*
X106940942Y-90469873D01*
X106988562Y-90517492D01*
X107036181Y-90612731D01*
X107036181Y-90850826D01*
X106988562Y-90993683D01*
X106131419Y-91993683D02*
X106083800Y-91946064D01*
X106036181Y-91803207D01*
X106036181Y-91707969D01*
X106083800Y-91565111D01*
X106179038Y-91469873D01*
X106274276Y-91422254D01*
X106464752Y-91374635D01*
X106607609Y-91374635D01*
X106798085Y-91422254D01*
X106893323Y-91469873D01*
X106988562Y-91565111D01*
X107036181Y-91707969D01*
X107036181Y-91803207D01*
X106988562Y-91946064D01*
X106940942Y-91993683D01*
X106036181Y-92898445D02*
X106036181Y-92422254D01*
X107036181Y-92422254D01*
X106021257Y-93681938D02*
X105973638Y-93824795D01*
X105973638Y-94062890D01*
X106021257Y-94158128D01*
X106068876Y-94205747D01*
X106164114Y-94253366D01*
X106259352Y-94253366D01*
X106354590Y-94205747D01*
X106402209Y-94158128D01*
X106449828Y-94062890D01*
X106497447Y-93872414D01*
X106545066Y-93777176D01*
X106592685Y-93729557D01*
X106687923Y-93681938D01*
X106783161Y-93681938D01*
X106878399Y-93729557D01*
X106926019Y-93777176D01*
X106973638Y-93872414D01*
X106973638Y-94110509D01*
X106926019Y-94253366D01*
X105973638Y-94681938D02*
X106973638Y-94681938D01*
X106973638Y-94920033D01*
X106926019Y-95062890D01*
X106830780Y-95158128D01*
X106735542Y-95205747D01*
X106545066Y-95253366D01*
X106402209Y-95253366D01*
X106211733Y-95205747D01*
X106116495Y-95158128D01*
X106021257Y-95062890D01*
X105973638Y-94920033D01*
X105973638Y-94681938D01*
X106259352Y-95634319D02*
X106259352Y-96110509D01*
X105973638Y-95539081D02*
X106973638Y-95872414D01*
X105973638Y-96205747D01*
X139374954Y-95831437D02*
X139374954Y-94831437D01*
X139946383Y-95831437D01*
X139946383Y-94831437D01*
X140994002Y-95736199D02*
X140946383Y-95783818D01*
X140803526Y-95831437D01*
X140708288Y-95831437D01*
X140565430Y-95783818D01*
X140470192Y-95688580D01*
X140422573Y-95593342D01*
X140374954Y-95402866D01*
X140374954Y-95260009D01*
X140422573Y-95069533D01*
X140470192Y-94974295D01*
X140565430Y-94879057D01*
X140708288Y-94831437D01*
X140803526Y-94831437D01*
X140946383Y-94879057D01*
X140994002Y-94926676D01*
X139236177Y-88521024D02*
X139236177Y-87521024D01*
X139807606Y-88521024D01*
X139807606Y-87521024D01*
X140855225Y-88425786D02*
X140807606Y-88473405D01*
X140664749Y-88521024D01*
X140569511Y-88521024D01*
X140426653Y-88473405D01*
X140331415Y-88378167D01*
X140283796Y-88282929D01*
X140236177Y-88092453D01*
X140236177Y-87949596D01*
X140283796Y-87759120D01*
X140331415Y-87663882D01*
X140426653Y-87568644D01*
X140569511Y-87521024D01*
X140664749Y-87521024D01*
X140807606Y-87568644D01*
X140855225Y-87616263D01*
X125845451Y-95695201D02*
X125845451Y-94695201D01*
X126416880Y-95695201D01*
X126416880Y-94695201D01*
X127464499Y-95599963D02*
X127416880Y-95647582D01*
X127274023Y-95695201D01*
X127178785Y-95695201D01*
X127035927Y-95647582D01*
X126940689Y-95552344D01*
X126893070Y-95457106D01*
X126845451Y-95266630D01*
X126845451Y-95123773D01*
X126893070Y-94933297D01*
X126940689Y-94838059D01*
X127035927Y-94742821D01*
X127178785Y-94695201D01*
X127274023Y-94695201D01*
X127416880Y-94742821D01*
X127464499Y-94790440D01*
X125784932Y-88493663D02*
X125784932Y-87493663D01*
X126356361Y-88493663D01*
X126356361Y-87493663D01*
X127403980Y-88398425D02*
X127356361Y-88446044D01*
X127213504Y-88493663D01*
X127118266Y-88493663D01*
X126975408Y-88446044D01*
X126880170Y-88350806D01*
X126832551Y-88255568D01*
X126784932Y-88065092D01*
X126784932Y-87922235D01*
X126832551Y-87731759D01*
X126880170Y-87636521D01*
X126975408Y-87541283D01*
X127118266Y-87493663D01*
X127213504Y-87493663D01*
X127356361Y-87541283D01*
X127403980Y-87588902D01*
X133492617Y-93550300D02*
X133016426Y-93550300D01*
X133016426Y-92550300D01*
X133730712Y-93550300D02*
X134254522Y-92883634D01*
X133730712Y-92883634D02*
X134254522Y-93550300D01*
X134587855Y-93502681D02*
X134730712Y-93550300D01*
X134968807Y-93550300D01*
X135064045Y-93502681D01*
X135111664Y-93455062D01*
X135159283Y-93359824D01*
X135159283Y-93264586D01*
X135111664Y-93169348D01*
X135064045Y-93121729D01*
X134968807Y-93074110D01*
X134778331Y-93026491D01*
X134683093Y-92978872D01*
X134635474Y-92931253D01*
X134587855Y-92836015D01*
X134587855Y-92740777D01*
X134635474Y-92645539D01*
X134683093Y-92597920D01*
X134778331Y-92550300D01*
X135016426Y-92550300D01*
X135159283Y-92597920D01*
X135587855Y-93550300D02*
X135587855Y-92550300D01*
X135825950Y-92550300D01*
X135968807Y-92597920D01*
X136064045Y-92693158D01*
X136111664Y-92788396D01*
X136159283Y-92978872D01*
X136159283Y-93121729D01*
X136111664Y-93312205D01*
X136064045Y-93407443D01*
X135968807Y-93502681D01*
X135825950Y-93550300D01*
X135587855Y-93550300D01*
X136540236Y-93264586D02*
X137016426Y-93264586D01*
X136444998Y-93550300D02*
X136778331Y-92550300D01*
X137111664Y-93550300D01*
X138206902Y-93550300D02*
X138206902Y-92550300D01*
X138587855Y-92550300D01*
X138683093Y-92597920D01*
X138730712Y-92645539D01*
X138778331Y-92740777D01*
X138778331Y-92883634D01*
X138730712Y-92978872D01*
X138683093Y-93026491D01*
X138587855Y-93074110D01*
X138206902Y-93074110D01*
X139635474Y-92883634D02*
X139635474Y-93550300D01*
X139206902Y-92883634D02*
X139206902Y-93407443D01*
X139254522Y-93502681D01*
X139349760Y-93550300D01*
X139492617Y-93550300D01*
X139587855Y-93502681D01*
X139635474Y-93455062D01*
X140254522Y-93550300D02*
X140159283Y-93502681D01*
X140111664Y-93407443D01*
X140111664Y-92550300D01*
X140778331Y-93550300D02*
X140683093Y-93502681D01*
X140635474Y-93407443D01*
X140635474Y-92550300D01*
X141587855Y-92883634D02*
X141587855Y-93550300D01*
X141159283Y-92883634D02*
X141159283Y-93407443D01*
X141206902Y-93502681D01*
X141302141Y-93550300D01*
X141444998Y-93550300D01*
X141540236Y-93502681D01*
X141587855Y-93455062D01*
X142064045Y-92883634D02*
X142064045Y-93883634D01*
X142064045Y-92931253D02*
X142159283Y-92883634D01*
X142349760Y-92883634D01*
X142444998Y-92931253D01*
X142492617Y-92978872D01*
X142540236Y-93074110D01*
X142540236Y-93359824D01*
X142492617Y-93455062D01*
X142444998Y-93502681D01*
X142349760Y-93550300D01*
X142159283Y-93550300D01*
X142064045Y-93502681D01*
X133110041Y-86532411D02*
X132633851Y-86532411D01*
X132633851Y-85532411D01*
X133348137Y-86532411D02*
X133871946Y-85865745D01*
X133348137Y-85865745D02*
X133871946Y-86532411D01*
X134205279Y-86484792D02*
X134348137Y-86532411D01*
X134586232Y-86532411D01*
X134681470Y-86484792D01*
X134729089Y-86437173D01*
X134776708Y-86341935D01*
X134776708Y-86246697D01*
X134729089Y-86151459D01*
X134681470Y-86103840D01*
X134586232Y-86056221D01*
X134395756Y-86008602D01*
X134300517Y-85960983D01*
X134252898Y-85913364D01*
X134205279Y-85818126D01*
X134205279Y-85722888D01*
X134252898Y-85627650D01*
X134300517Y-85580031D01*
X134395756Y-85532411D01*
X134633851Y-85532411D01*
X134776708Y-85580031D01*
X135776708Y-86437173D02*
X135729089Y-86484792D01*
X135586232Y-86532411D01*
X135490994Y-86532411D01*
X135348137Y-86484792D01*
X135252898Y-86389554D01*
X135205279Y-86294316D01*
X135157660Y-86103840D01*
X135157660Y-85960983D01*
X135205279Y-85770507D01*
X135252898Y-85675269D01*
X135348137Y-85580031D01*
X135490994Y-85532411D01*
X135586232Y-85532411D01*
X135729089Y-85580031D01*
X135776708Y-85627650D01*
X136681470Y-86532411D02*
X136205279Y-86532411D01*
X136205279Y-85532411D01*
X137776708Y-86532411D02*
X137776708Y-85532411D01*
X138157660Y-85532411D01*
X138252898Y-85580031D01*
X138300517Y-85627650D01*
X138348137Y-85722888D01*
X138348137Y-85865745D01*
X138300517Y-85960983D01*
X138252898Y-86008602D01*
X138157660Y-86056221D01*
X137776708Y-86056221D01*
X139205279Y-85865745D02*
X139205279Y-86532411D01*
X138776708Y-85865745D02*
X138776708Y-86389554D01*
X138824327Y-86484792D01*
X138919565Y-86532411D01*
X139062422Y-86532411D01*
X139157660Y-86484792D01*
X139205279Y-86437173D01*
X139824327Y-86532411D02*
X139729089Y-86484792D01*
X139681470Y-86389554D01*
X139681470Y-85532411D01*
X140348137Y-86532411D02*
X140252898Y-86484792D01*
X140205279Y-86389554D01*
X140205279Y-85532411D01*
X141157660Y-85865745D02*
X141157660Y-86532411D01*
X140729089Y-85865745D02*
X140729089Y-86389554D01*
X140776708Y-86484792D01*
X140871946Y-86532411D01*
X141014803Y-86532411D01*
X141110041Y-86484792D01*
X141157660Y-86437173D01*
X141633851Y-85865745D02*
X141633851Y-86865745D01*
X141633851Y-85913364D02*
X141729089Y-85865745D01*
X141919565Y-85865745D01*
X142014803Y-85913364D01*
X142062422Y-85960983D01*
X142110041Y-86056221D01*
X142110041Y-86341935D01*
X142062422Y-86437173D01*
X142014803Y-86484792D01*
X141919565Y-86532411D01*
X141729089Y-86532411D01*
X141633851Y-86484792D01*
X119127041Y-86335894D02*
X119269898Y-86383513D01*
X119507993Y-86383513D01*
X119603231Y-86335894D01*
X119650850Y-86288275D01*
X119698469Y-86193037D01*
X119698469Y-86097799D01*
X119650850Y-86002561D01*
X119603231Y-85954942D01*
X119507993Y-85907323D01*
X119317517Y-85859704D01*
X119222279Y-85812085D01*
X119174660Y-85764466D01*
X119127041Y-85669228D01*
X119127041Y-85573990D01*
X119174660Y-85478752D01*
X119222279Y-85431133D01*
X119317517Y-85383513D01*
X119555612Y-85383513D01*
X119698469Y-85431133D01*
X120698469Y-86288275D02*
X120650850Y-86335894D01*
X120507993Y-86383513D01*
X120412755Y-86383513D01*
X120269898Y-86335894D01*
X120174660Y-86240656D01*
X120127041Y-86145418D01*
X120079422Y-85954942D01*
X120079422Y-85812085D01*
X120127041Y-85621609D01*
X120174660Y-85526371D01*
X120269898Y-85431133D01*
X120412755Y-85383513D01*
X120507993Y-85383513D01*
X120650850Y-85431133D01*
X120698469Y-85478752D01*
X121603231Y-86383513D02*
X121127041Y-86383513D01*
X121127041Y-85383513D01*
X122698469Y-86383513D02*
X122698469Y-85383513D01*
X123079422Y-85383513D01*
X123174660Y-85431133D01*
X123222279Y-85478752D01*
X123269898Y-85573990D01*
X123269898Y-85716847D01*
X123222279Y-85812085D01*
X123174660Y-85859704D01*
X123079422Y-85907323D01*
X122698469Y-85907323D01*
X124127041Y-85716847D02*
X124127041Y-86383513D01*
X123698469Y-85716847D02*
X123698469Y-86240656D01*
X123746088Y-86335894D01*
X123841326Y-86383513D01*
X123984183Y-86383513D01*
X124079422Y-86335894D01*
X124127041Y-86288275D01*
X124746088Y-86383513D02*
X124650850Y-86335894D01*
X124603231Y-86240656D01*
X124603231Y-85383513D01*
X125269898Y-86383513D02*
X125174660Y-86335894D01*
X125127041Y-86240656D01*
X125127041Y-85383513D01*
X126079422Y-85716847D02*
X126079422Y-86383513D01*
X125650850Y-85716847D02*
X125650850Y-86240656D01*
X125698469Y-86335894D01*
X125793707Y-86383513D01*
X125936564Y-86383513D01*
X126031802Y-86335894D01*
X126079422Y-86288275D01*
X126555612Y-85716847D02*
X126555612Y-86716847D01*
X126555612Y-85764466D02*
X126650850Y-85716847D01*
X126841326Y-85716847D01*
X126936564Y-85764466D01*
X126984183Y-85812085D01*
X127031802Y-85907323D01*
X127031802Y-86193037D01*
X126984183Y-86288275D01*
X126936564Y-86335894D01*
X126841326Y-86383513D01*
X126650850Y-86383513D01*
X126555612Y-86335894D01*
X119028857Y-93598022D02*
X119171714Y-93645641D01*
X119409809Y-93645641D01*
X119505048Y-93598022D01*
X119552667Y-93550403D01*
X119600286Y-93455165D01*
X119600286Y-93359927D01*
X119552667Y-93264689D01*
X119505048Y-93217070D01*
X119409809Y-93169451D01*
X119219333Y-93121832D01*
X119124095Y-93074213D01*
X119076476Y-93026594D01*
X119028857Y-92931356D01*
X119028857Y-92836118D01*
X119076476Y-92740880D01*
X119124095Y-92693261D01*
X119219333Y-92645641D01*
X119457428Y-92645641D01*
X119600286Y-92693261D01*
X120028857Y-93645641D02*
X120028857Y-92645641D01*
X120266952Y-92645641D01*
X120409809Y-92693261D01*
X120505048Y-92788499D01*
X120552667Y-92883737D01*
X120600286Y-93074213D01*
X120600286Y-93217070D01*
X120552667Y-93407546D01*
X120505048Y-93502784D01*
X120409809Y-93598022D01*
X120266952Y-93645641D01*
X120028857Y-93645641D01*
X120981238Y-93359927D02*
X121457428Y-93359927D01*
X120886000Y-93645641D02*
X121219333Y-92645641D01*
X121552667Y-93645641D01*
X122647905Y-93645641D02*
X122647905Y-92645641D01*
X123028857Y-92645641D01*
X123124095Y-92693261D01*
X123171714Y-92740880D01*
X123219333Y-92836118D01*
X123219333Y-92978975D01*
X123171714Y-93074213D01*
X123124095Y-93121832D01*
X123028857Y-93169451D01*
X122647905Y-93169451D01*
X124076476Y-92978975D02*
X124076476Y-93645641D01*
X123647905Y-92978975D02*
X123647905Y-93502784D01*
X123695524Y-93598022D01*
X123790762Y-93645641D01*
X123933619Y-93645641D01*
X124028857Y-93598022D01*
X124076476Y-93550403D01*
X124695524Y-93645641D02*
X124600286Y-93598022D01*
X124552667Y-93502784D01*
X124552667Y-92645641D01*
X125219333Y-93645641D02*
X125124095Y-93598022D01*
X125076476Y-93502784D01*
X125076476Y-92645641D01*
X126028857Y-92978975D02*
X126028857Y-93645641D01*
X125600286Y-92978975D02*
X125600286Y-93502784D01*
X125647905Y-93598022D01*
X125743143Y-93645641D01*
X125886000Y-93645641D01*
X125981238Y-93598022D01*
X126028857Y-93550403D01*
X126505048Y-92978975D02*
X126505048Y-93978975D01*
X126505048Y-93026594D02*
X126600286Y-92978975D01*
X126790762Y-92978975D01*
X126886000Y-93026594D01*
X126933619Y-93074213D01*
X126981238Y-93169451D01*
X126981238Y-93455165D01*
X126933619Y-93550403D01*
X126886000Y-93598022D01*
X126790762Y-93645641D01*
X126600286Y-93645641D01*
X126505048Y-93598022D01*
X106057021Y-101152996D02*
X106057021Y-100152996D01*
X106485592Y-101152996D02*
X106485592Y-100629187D01*
X106437973Y-100533949D01*
X106342735Y-100486330D01*
X106199878Y-100486330D01*
X106104640Y-100533949D01*
X106057021Y-100581568D01*
X106818925Y-100486330D02*
X107199878Y-100486330D01*
X106961783Y-100152996D02*
X106961783Y-101010139D01*
X107009402Y-101105377D01*
X107104640Y-101152996D01*
X107199878Y-101152996D01*
X107390354Y-100486330D02*
X107771306Y-100486330D01*
X107533211Y-100152996D02*
X107533211Y-101010139D01*
X107580830Y-101105377D01*
X107676068Y-101152996D01*
X107771306Y-101152996D01*
X108104640Y-100486330D02*
X108104640Y-101486330D01*
X108104640Y-100533949D02*
X108199878Y-100486330D01*
X108390354Y-100486330D01*
X108485592Y-100533949D01*
X108533211Y-100581568D01*
X108580830Y-100676806D01*
X108580830Y-100962520D01*
X108533211Y-101057758D01*
X108485592Y-101105377D01*
X108390354Y-101152996D01*
X108199878Y-101152996D01*
X108104640Y-101105377D01*
X108961783Y-101105377D02*
X109057021Y-101152996D01*
X109247497Y-101152996D01*
X109342735Y-101105377D01*
X109390354Y-101010139D01*
X109390354Y-100962520D01*
X109342735Y-100867282D01*
X109247497Y-100819663D01*
X109104640Y-100819663D01*
X109009402Y-100772044D01*
X108961783Y-100676806D01*
X108961783Y-100629187D01*
X109009402Y-100533949D01*
X109104640Y-100486330D01*
X109247497Y-100486330D01*
X109342735Y-100533949D01*
X109818925Y-101057758D02*
X109866544Y-101105377D01*
X109818925Y-101152996D01*
X109771306Y-101105377D01*
X109818925Y-101057758D01*
X109818925Y-101152996D01*
X109818925Y-100533949D02*
X109866544Y-100581568D01*
X109818925Y-100629187D01*
X109771306Y-100581568D01*
X109818925Y-100533949D01*
X109818925Y-100629187D01*
X111009402Y-100105377D02*
X110152259Y-101391092D01*
X112057021Y-100105377D02*
X111199878Y-101391092D01*
X112818925Y-100486330D02*
X112818925Y-101295854D01*
X112771306Y-101391092D01*
X112723687Y-101438711D01*
X112628449Y-101486330D01*
X112485592Y-101486330D01*
X112390354Y-101438711D01*
X112818925Y-101105377D02*
X112723687Y-101152996D01*
X112533211Y-101152996D01*
X112437973Y-101105377D01*
X112390354Y-101057758D01*
X112342735Y-100962520D01*
X112342735Y-100676806D01*
X112390354Y-100581568D01*
X112437973Y-100533949D01*
X112533211Y-100486330D01*
X112723687Y-100486330D01*
X112818925Y-100533949D01*
X113295116Y-101152996D02*
X113295116Y-100486330D01*
X113295116Y-100152996D02*
X113247497Y-100200616D01*
X113295116Y-100248235D01*
X113342735Y-100200616D01*
X113295116Y-100152996D01*
X113295116Y-100248235D01*
X113628449Y-100486330D02*
X114009402Y-100486330D01*
X113771306Y-100152996D02*
X113771306Y-101010139D01*
X113818925Y-101105377D01*
X113914163Y-101152996D01*
X114009402Y-101152996D01*
X114342735Y-101152996D02*
X114342735Y-100152996D01*
X114771306Y-101152996D02*
X114771306Y-100629187D01*
X114723687Y-100533949D01*
X114628449Y-100486330D01*
X114485592Y-100486330D01*
X114390354Y-100533949D01*
X114342735Y-100581568D01*
X115676068Y-100486330D02*
X115676068Y-101152996D01*
X115247497Y-100486330D02*
X115247497Y-101010139D01*
X115295116Y-101105377D01*
X115390354Y-101152996D01*
X115533211Y-101152996D01*
X115628449Y-101105377D01*
X115676068Y-101057758D01*
X116152259Y-101152996D02*
X116152259Y-100152996D01*
X116152259Y-100533949D02*
X116247497Y-100486330D01*
X116437973Y-100486330D01*
X116533211Y-100533949D01*
X116580830Y-100581568D01*
X116628449Y-100676806D01*
X116628449Y-100962520D01*
X116580830Y-101057758D01*
X116533211Y-101105377D01*
X116437973Y-101152996D01*
X116247497Y-101152996D01*
X116152259Y-101105377D01*
X117057021Y-101057758D02*
X117104640Y-101105377D01*
X117057021Y-101152996D01*
X117009402Y-101105377D01*
X117057021Y-101057758D01*
X117057021Y-101152996D01*
X117961783Y-101105377D02*
X117866544Y-101152996D01*
X117676068Y-101152996D01*
X117580830Y-101105377D01*
X117533211Y-101057758D01*
X117485592Y-100962520D01*
X117485592Y-100676806D01*
X117533211Y-100581568D01*
X117580830Y-100533949D01*
X117676068Y-100486330D01*
X117866544Y-100486330D01*
X117961783Y-100533949D01*
X118533211Y-101152996D02*
X118437973Y-101105377D01*
X118390354Y-101057758D01*
X118342735Y-100962520D01*
X118342735Y-100676806D01*
X118390354Y-100581568D01*
X118437973Y-100533949D01*
X118533211Y-100486330D01*
X118676068Y-100486330D01*
X118771306Y-100533949D01*
X118818925Y-100581568D01*
X118866544Y-100676806D01*
X118866544Y-100962520D01*
X118818925Y-101057758D01*
X118771306Y-101105377D01*
X118676068Y-101152996D01*
X118533211Y-101152996D01*
X119295116Y-101152996D02*
X119295116Y-100486330D01*
X119295116Y-100581568D02*
X119342735Y-100533949D01*
X119437973Y-100486330D01*
X119580830Y-100486330D01*
X119676068Y-100533949D01*
X119723687Y-100629187D01*
X119723687Y-101152996D01*
X119723687Y-100629187D02*
X119771306Y-100533949D01*
X119866544Y-100486330D01*
X120009402Y-100486330D01*
X120104640Y-100533949D01*
X120152259Y-100629187D01*
X120152259Y-101152996D01*
X121342735Y-100105377D02*
X120485592Y-101391092D01*
X121533211Y-100152996D02*
X122104640Y-100152996D01*
X121818925Y-101152996D02*
X121818925Y-100152996D01*
X122723687Y-100152996D02*
X122723687Y-100867282D01*
X122676068Y-101010139D01*
X122580830Y-101105377D01*
X122437973Y-101152996D01*
X122342735Y-101152996D01*
X123676068Y-101152996D02*
X123199878Y-101152996D01*
X123199878Y-100152996D01*
X123866544Y-100152996D02*
X124437973Y-100152996D01*
X124152259Y-101152996D02*
X124152259Y-100152996D01*
X124771306Y-101152996D02*
X124771306Y-100152996D01*
X125104640Y-100867282D01*
X125437973Y-100152996D01*
X125437973Y-101152996D01*
X126628449Y-100105377D02*
X125771306Y-101391092D01*
X126961783Y-101152996D02*
X126961783Y-100152996D01*
X127342735Y-100152996D01*
X127437973Y-100200616D01*
X127485592Y-100248235D01*
X127533211Y-100343473D01*
X127533211Y-100486330D01*
X127485592Y-100581568D01*
X127437973Y-100629187D01*
X127342735Y-100676806D01*
X126961783Y-100676806D01*
X128104640Y-100581568D02*
X128009402Y-100533949D01*
X127961783Y-100486330D01*
X127914163Y-100391092D01*
X127914163Y-100343473D01*
X127961783Y-100248235D01*
X128009402Y-100200616D01*
X128104640Y-100152996D01*
X128295116Y-100152996D01*
X128390354Y-100200616D01*
X128437973Y-100248235D01*
X128485592Y-100343473D01*
X128485592Y-100391092D01*
X128437973Y-100486330D01*
X128390354Y-100533949D01*
X128295116Y-100581568D01*
X128104640Y-100581568D01*
X128009402Y-100629187D01*
X127961783Y-100676806D01*
X127914163Y-100772044D01*
X127914163Y-100962520D01*
X127961783Y-101057758D01*
X128009402Y-101105377D01*
X128104640Y-101152996D01*
X128295116Y-101152996D01*
X128390354Y-101105377D01*
X128437973Y-101057758D01*
X128485592Y-100962520D01*
X128485592Y-100772044D01*
X128437973Y-100676806D01*
X128390354Y-100629187D01*
X128295116Y-100581568D01*
X128866544Y-100248235D02*
X128914163Y-100200616D01*
X129009402Y-100152996D01*
X129247497Y-100152996D01*
X129342735Y-100200616D01*
X129390354Y-100248235D01*
X129437973Y-100343473D01*
X129437973Y-100438711D01*
X129390354Y-100581568D01*
X128818925Y-101152996D01*
X129437973Y-101152996D01*
X130199878Y-100629187D02*
X130342735Y-100676806D01*
X130390354Y-100724425D01*
X130437973Y-100819663D01*
X130437973Y-100962520D01*
X130390354Y-101057758D01*
X130342735Y-101105377D01*
X130247497Y-101152996D01*
X129866544Y-101152996D01*
X129866544Y-100152996D01*
X130199878Y-100152996D01*
X130295116Y-100200616D01*
X130342735Y-100248235D01*
X130390354Y-100343473D01*
X130390354Y-100438711D01*
X130342735Y-100533949D01*
X130295116Y-100581568D01*
X130199878Y-100629187D01*
X129866544Y-100629187D01*
X130771306Y-100152996D02*
X131437973Y-100152996D01*
X131009402Y-101152996D01*
X132342735Y-101152996D02*
X131771306Y-101152996D01*
X132057021Y-101152996D02*
X132057021Y-100152996D01*
X131961782Y-100295854D01*
X131866544Y-100391092D01*
X131771306Y-100438711D01*
X133247497Y-100152996D02*
X132771306Y-100152996D01*
X132723687Y-100629187D01*
X132771306Y-100581568D01*
X132866544Y-100533949D01*
X133104640Y-100533949D01*
X133199878Y-100581568D01*
X133247497Y-100629187D01*
X133295116Y-100724425D01*
X133295116Y-100962520D01*
X133247497Y-101057758D01*
X133199878Y-101105377D01*
X133104640Y-101152996D01*
X132866544Y-101152996D01*
X132771306Y-101105377D01*
X132723687Y-101057758D01*
X133723687Y-100772044D02*
X134485592Y-100772044D01*
X134961783Y-101152996D02*
X134961783Y-100152996D01*
X135390354Y-100248235D02*
X135437973Y-100200616D01*
X135533211Y-100152996D01*
X135771306Y-100152996D01*
X135866544Y-100200616D01*
X135914163Y-100248235D01*
X135961783Y-100343473D01*
X135961783Y-100438711D01*
X135914163Y-100581568D01*
X135342735Y-101152996D01*
X135961783Y-101152996D01*
X136961783Y-101057758D02*
X136914163Y-101105377D01*
X136771306Y-101152996D01*
X136676068Y-101152996D01*
X136533211Y-101105377D01*
X136437973Y-101010139D01*
X136390354Y-100914901D01*
X136342735Y-100724425D01*
X136342735Y-100581568D01*
X136390354Y-100391092D01*
X136437973Y-100295854D01*
X136533211Y-100200616D01*
X136676068Y-100152996D01*
X136771306Y-100152996D01*
X136914163Y-100200616D01*
X136961783Y-100248235D01*
X137390354Y-100772044D02*
X138152259Y-100772044D01*
X138961783Y-100629187D02*
X139104640Y-100676806D01*
X139152259Y-100724425D01*
X139199878Y-100819663D01*
X139199878Y-100962520D01*
X139152259Y-101057758D01*
X139104640Y-101105377D01*
X139009402Y-101152996D01*
X138628449Y-101152996D01*
X138628449Y-100152996D01*
X138961783Y-100152996D01*
X139057021Y-100200616D01*
X139104640Y-100248235D01*
X139152259Y-100343473D01*
X139152259Y-100438711D01*
X139104640Y-100533949D01*
X139057021Y-100581568D01*
X138961783Y-100629187D01*
X138628449Y-100629187D01*
X140057021Y-100486330D02*
X140057021Y-101152996D01*
X139628449Y-100486330D02*
X139628449Y-101010139D01*
X139676068Y-101105377D01*
X139771306Y-101152996D01*
X139914163Y-101152996D01*
X140009402Y-101105377D01*
X140057021Y-101057758D01*
X140485592Y-101105377D02*
X140580830Y-101152996D01*
X140771306Y-101152996D01*
X140866544Y-101105377D01*
X140914163Y-101010139D01*
X140914163Y-100962520D01*
X140866544Y-100867282D01*
X140771306Y-100819663D01*
X140628449Y-100819663D01*
X140533211Y-100772044D01*
X140485592Y-100676806D01*
X140485592Y-100629187D01*
X140533211Y-100533949D01*
X140628449Y-100486330D01*
X140771306Y-100486330D01*
X140866544Y-100533949D01*
X141342735Y-100772044D02*
X142104640Y-100772044D01*
X142580830Y-100629187D02*
X142914163Y-100629187D01*
X143057021Y-101152996D02*
X142580830Y-101152996D01*
X142580830Y-100152996D01*
X143057021Y-100152996D01*
X143390354Y-101152996D02*
X143914163Y-100486330D01*
X143390354Y-100486330D02*
X143914163Y-101152996D01*
X144152259Y-100486330D02*
X144533211Y-100486330D01*
X144295116Y-100152996D02*
X144295116Y-101010139D01*
X144342735Y-101105377D01*
X144437973Y-101152996D01*
X144533211Y-101152996D01*
X145247497Y-101105377D02*
X145152259Y-101152996D01*
X144961783Y-101152996D01*
X144866544Y-101105377D01*
X144818925Y-101010139D01*
X144818925Y-100629187D01*
X144866544Y-100533949D01*
X144961783Y-100486330D01*
X145152259Y-100486330D01*
X145247497Y-100533949D01*
X145295116Y-100629187D01*
X145295116Y-100724425D01*
X144818925Y-100819663D01*
X145723687Y-100486330D02*
X145723687Y-101152996D01*
X145723687Y-100581568D02*
X145771306Y-100533949D01*
X145866544Y-100486330D01*
X146009402Y-100486330D01*
X146104640Y-100533949D01*
X146152259Y-100629187D01*
X146152259Y-101152996D01*
X147057021Y-101152996D02*
X147057021Y-100152996D01*
X147057021Y-101105377D02*
X146961783Y-101152996D01*
X146771306Y-101152996D01*
X146676068Y-101105377D01*
X146628449Y-101057758D01*
X146580830Y-100962520D01*
X146580830Y-100676806D01*
X146628449Y-100581568D01*
X146676068Y-100533949D01*
X146771306Y-100486330D01*
X146961783Y-100486330D01*
X147057021Y-100533949D01*
X147914163Y-101105377D02*
X147818925Y-101152996D01*
X147628449Y-101152996D01*
X147533211Y-101105377D01*
X147485592Y-101010139D01*
X147485592Y-100629187D01*
X147533211Y-100533949D01*
X147628449Y-100486330D01*
X147818925Y-100486330D01*
X147914163Y-100533949D01*
X147961782Y-100629187D01*
X147961782Y-100724425D01*
X147485592Y-100819663D01*
X148390354Y-101152996D02*
X148390354Y-100486330D01*
X148390354Y-100676806D02*
X148437973Y-100581568D01*
X148485592Y-100533949D01*
X148580830Y-100486330D01*
X148676068Y-100486330D01*
X149009402Y-100772044D02*
X149771306Y-100772044D01*
X150818925Y-101057758D02*
X150771306Y-101105377D01*
X150628449Y-101152996D01*
X150533211Y-101152996D01*
X150390354Y-101105377D01*
X150295116Y-101010139D01*
X150247497Y-100914901D01*
X150199878Y-100724425D01*
X150199878Y-100581568D01*
X150247497Y-100391092D01*
X150295116Y-100295854D01*
X150390354Y-100200616D01*
X150533211Y-100152996D01*
X150628449Y-100152996D01*
X150771306Y-100200616D01*
X150818925Y-100248235D01*
X151676068Y-101152996D02*
X151676068Y-100629187D01*
X151628449Y-100533949D01*
X151533211Y-100486330D01*
X151342735Y-100486330D01*
X151247497Y-100533949D01*
X151676068Y-101105377D02*
X151580830Y-101152996D01*
X151342735Y-101152996D01*
X151247497Y-101105377D01*
X151199878Y-101010139D01*
X151199878Y-100914901D01*
X151247497Y-100819663D01*
X151342735Y-100772044D01*
X151580830Y-100772044D01*
X151676068Y-100724425D01*
X152152259Y-101152996D02*
X152152259Y-100486330D01*
X152152259Y-100676806D02*
X152199878Y-100581568D01*
X152247497Y-100533949D01*
X152342735Y-100486330D01*
X152437973Y-100486330D01*
X152771306Y-101152996D02*
X152771306Y-100486330D01*
X152771306Y-100676806D02*
X152818925Y-100581568D01*
X152866544Y-100533949D01*
X152961782Y-100486330D01*
X153057021Y-100486330D01*
X153390354Y-101152996D02*
X153390354Y-100486330D01*
X153390354Y-100152996D02*
X153342735Y-100200616D01*
X153390354Y-100248235D01*
X153437973Y-100200616D01*
X153390354Y-100152996D01*
X153390354Y-100248235D01*
X154247497Y-101105377D02*
X154152259Y-101152996D01*
X153961783Y-101152996D01*
X153866544Y-101105377D01*
X153818925Y-101010139D01*
X153818925Y-100629187D01*
X153866544Y-100533949D01*
X153961783Y-100486330D01*
X154152259Y-100486330D01*
X154247497Y-100533949D01*
X154295116Y-100629187D01*
X154295116Y-100724425D01*
X153818925Y-100819663D01*
X154723687Y-101152996D02*
X154723687Y-100486330D01*
X154723687Y-100676806D02*
X154771306Y-100581568D01*
X154818925Y-100533949D01*
X154914163Y-100486330D01*
X155009402Y-100486330D01*
%TO.C,R1*%
X124244475Y-83875678D02*
X123911142Y-83399488D01*
X123673046Y-83875678D02*
X123673046Y-82875678D01*
X124053999Y-82875678D01*
X124149237Y-82923298D01*
X124196856Y-82970917D01*
X124244475Y-83066155D01*
X124244475Y-83209012D01*
X124196856Y-83304250D01*
X124149237Y-83351869D01*
X124053999Y-83399488D01*
X123673046Y-83399488D01*
X125196856Y-83875678D02*
X124625427Y-83875678D01*
X124911142Y-83875678D02*
X124911142Y-82875678D01*
X124815903Y-83018536D01*
X124720665Y-83113774D01*
X124625427Y-83161393D01*
%TO.C,J1*%
X148398031Y-97958577D02*
X149112317Y-97958577D01*
X149255174Y-98006196D01*
X149350412Y-98101434D01*
X149398031Y-98244291D01*
X149398031Y-98339529D01*
X149398031Y-96958577D02*
X149398031Y-97530005D01*
X149398031Y-97244291D02*
X148398031Y-97244291D01*
X148540889Y-97339529D01*
X148636127Y-97434767D01*
X148683746Y-97530005D01*
%TO.C,C2*%
X139527271Y-77344900D02*
X139479652Y-77392519D01*
X139336795Y-77440138D01*
X139241557Y-77440138D01*
X139098699Y-77392519D01*
X139003461Y-77297281D01*
X138955842Y-77202043D01*
X138908223Y-77011567D01*
X138908223Y-76868710D01*
X138955842Y-76678234D01*
X139003461Y-76582996D01*
X139098699Y-76487758D01*
X139241557Y-76440138D01*
X139336795Y-76440138D01*
X139479652Y-76487758D01*
X139527271Y-76535377D01*
X139908223Y-76535377D02*
X139955842Y-76487758D01*
X140051080Y-76440138D01*
X140289176Y-76440138D01*
X140384414Y-76487758D01*
X140432033Y-76535377D01*
X140479652Y-76630615D01*
X140479652Y-76725853D01*
X140432033Y-76868710D01*
X139860604Y-77440138D01*
X140479652Y-77440138D01*
%TO.C,Q1*%
X122479645Y-77696050D02*
X122384407Y-77648431D01*
X122289169Y-77553192D01*
X122146312Y-77410335D01*
X122051074Y-77362716D01*
X121955836Y-77362716D01*
X122003455Y-77600811D02*
X121908217Y-77553192D01*
X121812979Y-77457954D01*
X121765360Y-77267478D01*
X121765360Y-76934145D01*
X121812979Y-76743669D01*
X121908217Y-76648431D01*
X122003455Y-76600811D01*
X122193931Y-76600811D01*
X122289169Y-76648431D01*
X122384407Y-76743669D01*
X122432026Y-76934145D01*
X122432026Y-77267478D01*
X122384407Y-77457954D01*
X122289169Y-77553192D01*
X122193931Y-77600811D01*
X122003455Y-77600811D01*
X123384407Y-77600811D02*
X122812979Y-77600811D01*
X123098693Y-77600811D02*
X123098693Y-76600811D01*
X123003455Y-76743669D01*
X122908217Y-76838907D01*
X122812979Y-76886526D01*
%TO.C,J2*%
X111746802Y-77764144D02*
X112461088Y-77764144D01*
X112603945Y-77811763D01*
X112699183Y-77907001D01*
X112746802Y-78049858D01*
X112746802Y-78145096D01*
X111842041Y-77335572D02*
X111794422Y-77287953D01*
X111746802Y-77192715D01*
X111746802Y-76954620D01*
X111794422Y-76859382D01*
X111842041Y-76811763D01*
X111937279Y-76764144D01*
X112032517Y-76764144D01*
X112175374Y-76811763D01*
X112746802Y-77383191D01*
X112746802Y-76764144D01*
%TO.C,RV3*%
X132441248Y-98843658D02*
X131965058Y-99176991D01*
X132441248Y-99415086D02*
X131441248Y-99415086D01*
X131441248Y-99034134D01*
X131488868Y-98938896D01*
X131536487Y-98891277D01*
X131631725Y-98843658D01*
X131774582Y-98843658D01*
X131869820Y-98891277D01*
X131917439Y-98938896D01*
X131965058Y-99034134D01*
X131965058Y-99415086D01*
X131441248Y-98557943D02*
X132441248Y-98224610D01*
X131441248Y-97891277D01*
X131441248Y-97653181D02*
X131441248Y-97034134D01*
X131822201Y-97367467D01*
X131822201Y-97224610D01*
X131869820Y-97129372D01*
X131917439Y-97081753D01*
X132012677Y-97034134D01*
X132250772Y-97034134D01*
X132346010Y-97081753D01*
X132393629Y-97129372D01*
X132441248Y-97224610D01*
X132441248Y-97510324D01*
X132393629Y-97605562D01*
X132346010Y-97653181D01*
%TO.C,RV2*%
X130217506Y-91669260D02*
X129741316Y-92002593D01*
X130217506Y-92240688D02*
X129217506Y-92240688D01*
X129217506Y-91859736D01*
X129265126Y-91764498D01*
X129312745Y-91716879D01*
X129407983Y-91669260D01*
X129550840Y-91669260D01*
X129646078Y-91716879D01*
X129693697Y-91764498D01*
X129741316Y-91859736D01*
X129741316Y-92240688D01*
X129217506Y-91383545D02*
X130217506Y-91050212D01*
X129217506Y-90716879D01*
X129312745Y-90431164D02*
X129265126Y-90383545D01*
X129217506Y-90288307D01*
X129217506Y-90050212D01*
X129265126Y-89954974D01*
X129312745Y-89907355D01*
X129407983Y-89859736D01*
X129503221Y-89859736D01*
X129646078Y-89907355D01*
X130217506Y-90478783D01*
X130217506Y-89859736D01*
%TO.C,C1*%
X131601999Y-77388201D02*
X131554380Y-77435820D01*
X131411523Y-77483439D01*
X131316285Y-77483439D01*
X131173427Y-77435820D01*
X131078189Y-77340582D01*
X131030570Y-77245344D01*
X130982951Y-77054868D01*
X130982951Y-76912011D01*
X131030570Y-76721535D01*
X131078189Y-76626297D01*
X131173427Y-76531059D01*
X131316285Y-76483439D01*
X131411523Y-76483439D01*
X131554380Y-76531059D01*
X131601999Y-76578678D01*
X132554380Y-77483439D02*
X131982951Y-77483439D01*
X132268666Y-77483439D02*
X132268666Y-76483439D01*
X132173427Y-76626297D01*
X132078189Y-76721535D01*
X131982951Y-76769154D01*
%TO.C,RV1*%
X130356490Y-98781115D02*
X129880300Y-99114448D01*
X130356490Y-99352543D02*
X129356490Y-99352543D01*
X129356490Y-98971591D01*
X129404110Y-98876353D01*
X129451729Y-98828734D01*
X129546967Y-98781115D01*
X129689824Y-98781115D01*
X129785062Y-98828734D01*
X129832681Y-98876353D01*
X129880300Y-98971591D01*
X129880300Y-99352543D01*
X129356490Y-98495400D02*
X130356490Y-98162067D01*
X129356490Y-97828734D01*
X130356490Y-96971591D02*
X130356490Y-97543019D01*
X130356490Y-97257305D02*
X129356490Y-97257305D01*
X129499348Y-97352543D01*
X129594586Y-97447781D01*
X129642205Y-97543019D01*
%TO.C,RV4*%
X132337010Y-91588701D02*
X131860820Y-91922034D01*
X132337010Y-92160129D02*
X131337010Y-92160129D01*
X131337010Y-91779177D01*
X131384630Y-91683939D01*
X131432249Y-91636320D01*
X131527487Y-91588701D01*
X131670344Y-91588701D01*
X131765582Y-91636320D01*
X131813201Y-91683939D01*
X131860820Y-91779177D01*
X131860820Y-92160129D01*
X131337010Y-91302986D02*
X132337010Y-90969653D01*
X131337010Y-90636320D01*
X131670344Y-89874415D02*
X132337010Y-89874415D01*
X131289391Y-90112510D02*
X132003677Y-90350605D01*
X132003677Y-89731558D01*
D11*
%TO.C,R1*%
X120589428Y-83348321D02*
X120519428Y-83348321D01*
X123329428Y-83348321D02*
G75*
G03*
X123329428Y-83348321I-1370000J0D01*
G01*
%TO.C,J1*%
X150308653Y-84694410D02*
X150343653Y-84729410D01*
X153229653Y-96660410D02*
X153969653Y-96660410D01*
X143808653Y-81060410D02*
X153729653Y-81060410D01*
X143808653Y-96420410D02*
X143808653Y-81060410D01*
X153169653Y-96420410D02*
X153169653Y-81060410D01*
X147794653Y-87670410D02*
X147830653Y-87705410D01*
X150092653Y-84887410D02*
X150138653Y-84934410D01*
X146768653Y-96420410D02*
X146768653Y-81060410D01*
X150308653Y-89774410D02*
X150343653Y-89809410D01*
X153729653Y-96420410D02*
X153729653Y-81060410D01*
X143808653Y-96420410D02*
X153729653Y-96420410D01*
X148000653Y-82385410D02*
X148046653Y-82432410D01*
X148000653Y-87465410D02*
X148046653Y-87512410D01*
X151669653Y-96420410D02*
X151669653Y-81060410D01*
X147794653Y-82590410D02*
X147830653Y-82625410D01*
X153969653Y-96660410D02*
X153969653Y-96160410D01*
X150092653Y-89967410D02*
X150138653Y-90014410D01*
X149753653Y-92285410D02*
G75*
G03*
X148386611Y-92284983I-684001J-1534993D01*
G01*
X148385653Y-95355410D02*
G75*
G03*
X149752695Y-95355837I684001J1534993D01*
G01*
X150749653Y-93820410D02*
G75*
G03*
X150604409Y-93137092I-1679992J1D01*
G01*
X150604653Y-94504410D02*
G75*
G03*
X150749906Y-93791605I-1535001J683999D01*
G01*
X147534653Y-93136410D02*
G75*
G03*
X147534226Y-94503452I1534993J-684001D01*
G01*
X150749653Y-88740410D02*
G75*
G03*
X150749653Y-88740410I-1680000J0D01*
G01*
X150749653Y-83660410D02*
G75*
G03*
X150749653Y-83660410I-1680000J0D01*
G01*
%TO.C,C2*%
X139733938Y-78157758D02*
X139733938Y-83317758D01*
X139693938Y-78157758D02*
X139693938Y-83317758D01*
X140654938Y-78339758D02*
X140654938Y-79697758D01*
X141854938Y-79294758D02*
X141854938Y-79697758D01*
X141334938Y-81777758D02*
X141334938Y-82741758D01*
X140654938Y-81777758D02*
X140654938Y-83135758D01*
X140093938Y-78187758D02*
X140093938Y-79697758D01*
X140373938Y-81777758D02*
X140373938Y-83228758D01*
X140894938Y-78447758D02*
X140894938Y-79697758D01*
X140614938Y-78323758D02*
X140614938Y-79697758D01*
X141614938Y-81777758D02*
X141614938Y-82480758D01*
X140814938Y-78408758D02*
X140814938Y-79697758D01*
X139773938Y-78158758D02*
X139773938Y-83316758D01*
X142254938Y-80219758D02*
X142254938Y-81255758D01*
X140534938Y-81777758D02*
X140534938Y-83179758D01*
X140934938Y-78469758D02*
X140934938Y-79697758D01*
X141774938Y-81777758D02*
X141774938Y-82291758D01*
X142174938Y-79932758D02*
X142174938Y-81542758D01*
X141494938Y-78873758D02*
X141494938Y-79697758D01*
X141974938Y-79486758D02*
X141974938Y-79697758D01*
X141134938Y-78588758D02*
X141134938Y-79697758D01*
X141814938Y-81777758D02*
X141814938Y-82237758D01*
X140974938Y-81777758D02*
X140974938Y-82984758D01*
X141454938Y-81777758D02*
X141454938Y-82638758D01*
X140213938Y-78209758D02*
X140213938Y-79697758D01*
X142094938Y-79726758D02*
X142094938Y-81748758D01*
X141294938Y-81777758D02*
X141294938Y-82772758D01*
X142054938Y-79639758D02*
X142054938Y-81835758D01*
X140694938Y-81777758D02*
X140694938Y-83119758D01*
X140574938Y-78309758D02*
X140574938Y-79697758D01*
X140013938Y-78176758D02*
X140013938Y-79697758D01*
X140053938Y-78181758D02*
X140053938Y-79697758D01*
X139853938Y-78161758D02*
X139853938Y-83313758D01*
X141734938Y-79132758D02*
X141734938Y-79697758D01*
X141134938Y-81777758D02*
X141134938Y-82886758D01*
X139973938Y-81777758D02*
X139973938Y-83302758D01*
X140333938Y-81777758D02*
X140333938Y-83238758D01*
X141094938Y-81777758D02*
X141094938Y-82912758D01*
X140854938Y-81777758D02*
X140854938Y-83047758D01*
X141894938Y-81777758D02*
X141894938Y-82120758D01*
X141934938Y-81777758D02*
X141934938Y-82056758D01*
X141654938Y-79038758D02*
X141654938Y-79697758D01*
X141054938Y-78537758D02*
X141054938Y-79697758D01*
X139893938Y-78164758D02*
X139893938Y-83310758D01*
X140414938Y-81777758D02*
X140414938Y-83217758D01*
X141694938Y-81777758D02*
X141694938Y-82390758D01*
X141254938Y-78672758D02*
X141254938Y-79697758D01*
X137139163Y-79012758D02*
X137139163Y-79512758D01*
X141734938Y-81777758D02*
X141734938Y-82342758D01*
X140774938Y-78389758D02*
X140774938Y-79697758D01*
X140814938Y-81777758D02*
X140814938Y-83066758D01*
X142294938Y-80453758D02*
X142294938Y-81021758D01*
X141174938Y-78615758D02*
X141174938Y-79697758D01*
X140934938Y-81777758D02*
X140934938Y-83005758D01*
X141574938Y-81777758D02*
X141574938Y-82522758D01*
X141174938Y-81777758D02*
X141174938Y-82859758D01*
X140293938Y-78226758D02*
X140293938Y-79697758D01*
X140213938Y-81777758D02*
X140213938Y-83265758D01*
X139973938Y-78172758D02*
X139973938Y-79697758D01*
X141094938Y-78562758D02*
X141094938Y-79697758D01*
X141214938Y-78642758D02*
X141214938Y-79697758D01*
X142134938Y-79822758D02*
X142134938Y-81652758D01*
X140454938Y-78269758D02*
X140454938Y-79697758D01*
X140974938Y-78490758D02*
X140974938Y-79697758D01*
X140173938Y-78201758D02*
X140173938Y-79697758D01*
X140774938Y-81777758D02*
X140774938Y-83085758D01*
X140093938Y-81777758D02*
X140093938Y-83287758D01*
X140854938Y-78427758D02*
X140854938Y-79697758D01*
X141654938Y-81777758D02*
X141654938Y-82436758D01*
X140333938Y-78236758D02*
X140333938Y-79697758D01*
X141014938Y-78513758D02*
X141014938Y-79697758D01*
X140173938Y-81777758D02*
X140173938Y-83273758D01*
X141334938Y-78733758D02*
X141334938Y-79697758D01*
X139933938Y-81777758D02*
X139933938Y-83306758D01*
X140534938Y-78295758D02*
X140534938Y-79697758D01*
X140133938Y-78194758D02*
X140133938Y-79697758D01*
X140614938Y-81777758D02*
X140614938Y-83151758D01*
X140013938Y-81777758D02*
X140013938Y-83298758D01*
X141254938Y-81777758D02*
X141254938Y-82802758D01*
X139813938Y-78159758D02*
X139813938Y-83315758D01*
X141894938Y-79354758D02*
X141894938Y-79697758D01*
X141374938Y-78766758D02*
X141374938Y-79697758D01*
X141974938Y-81777758D02*
X141974938Y-81988758D01*
X140494938Y-81777758D02*
X140494938Y-83192758D01*
X141694938Y-79084758D02*
X141694938Y-79697758D01*
X140574938Y-81777758D02*
X140574938Y-83165758D01*
X141054938Y-81777758D02*
X141054938Y-82937758D01*
X140133938Y-81777758D02*
X140133938Y-83280758D01*
X141854938Y-81777758D02*
X141854938Y-82180758D01*
X141814938Y-79237758D02*
X141814938Y-79697758D01*
X141534938Y-78911758D02*
X141534938Y-79697758D01*
X140053938Y-81777758D02*
X140053938Y-83293758D01*
X141294938Y-78702758D02*
X141294938Y-79697758D01*
X140454938Y-81777758D02*
X140454938Y-83205758D01*
X140414938Y-78257758D02*
X140414938Y-79697758D01*
X141414938Y-81777758D02*
X141414938Y-82674758D01*
X140694938Y-78355758D02*
X140694938Y-79697758D01*
X141534938Y-81777758D02*
X141534938Y-82563758D01*
X141014938Y-81777758D02*
X141014938Y-82961758D01*
X141214938Y-81777758D02*
X141214938Y-82832758D01*
X140734938Y-78372758D02*
X140734938Y-79697758D01*
X140734938Y-81777758D02*
X140734938Y-83102758D01*
X141934938Y-79418758D02*
X141934938Y-79697758D01*
X141614938Y-78994758D02*
X141614938Y-79697758D01*
X139933938Y-78168758D02*
X139933938Y-79697758D01*
X140373938Y-78246758D02*
X140373938Y-79697758D01*
X141374938Y-81777758D02*
X141374938Y-82708758D01*
X141454938Y-78836758D02*
X141454938Y-79697758D01*
X141774938Y-79183758D02*
X141774938Y-79697758D01*
X136889163Y-79262758D02*
X137389163Y-79262758D01*
X140253938Y-78217758D02*
X140253938Y-79697758D01*
X142014938Y-79559758D02*
X142014938Y-81915758D01*
X141414938Y-78800758D02*
X141414938Y-79697758D01*
X142214938Y-80060758D02*
X142214938Y-81414758D01*
X140894938Y-81777758D02*
X140894938Y-83027758D01*
X141494938Y-81777758D02*
X141494938Y-82601758D01*
X140293938Y-81777758D02*
X140293938Y-83248758D01*
X141574938Y-78952758D02*
X141574938Y-79697758D01*
X140494938Y-78282758D02*
X140494938Y-79697758D01*
X140253938Y-81777758D02*
X140253938Y-83257758D01*
X142313938Y-80737758D02*
G75*
G03*
X142313938Y-80737758I-2620000J0D01*
G01*
%TO.C,Q1*%
X118454884Y-81638431D02*
X126694884Y-81638431D01*
X118454884Y-78148431D02*
X118454884Y-81638431D01*
X124175884Y-78148431D02*
X124175884Y-79728431D01*
X120974884Y-81318431D02*
X120974884Y-81638431D01*
X120974884Y-78148431D02*
X120974884Y-79218431D01*
X118454884Y-78148431D02*
X126694884Y-78148431D01*
X126694884Y-78148431D02*
X126694884Y-81638431D01*
X124175884Y-80808431D02*
X124175884Y-81638431D01*
%TO.C,J2*%
X111294771Y-85202945D02*
X111248771Y-85155945D01*
X108217771Y-78749945D02*
X108217771Y-99189945D01*
X111078771Y-85395945D02*
X111043771Y-85360945D01*
X117578771Y-99189945D02*
X107657771Y-99189945D01*
X114618771Y-78749945D02*
X114618771Y-99189945D01*
X117578771Y-78749945D02*
X117578771Y-99189945D01*
X113592771Y-87499945D02*
X113556771Y-87464945D01*
X117578771Y-78749945D02*
X107657771Y-78749945D01*
X111294771Y-90282945D02*
X111248771Y-90235945D01*
X111294771Y-95362945D02*
X111248771Y-95315945D01*
X111078771Y-95555945D02*
X111043771Y-95520945D01*
X113592771Y-92579945D02*
X113556771Y-92544945D01*
X113386771Y-87704945D02*
X113340771Y-87657945D01*
X113592771Y-97659945D02*
X113556771Y-97624945D01*
X107657771Y-78749945D02*
X107657771Y-99189945D01*
X109717771Y-78749945D02*
X109717771Y-99189945D01*
X107417771Y-78509945D02*
X107417771Y-79009945D01*
X113386771Y-97864945D02*
X113340771Y-97817945D01*
X108157771Y-78509945D02*
X107417771Y-78509945D01*
X111078771Y-90475945D02*
X111043771Y-90440945D01*
X113386771Y-92784945D02*
X113340771Y-92737945D01*
X113001771Y-79814945D02*
G75*
G03*
X111634729Y-79814518I-684001J-1534993D01*
G01*
X111633771Y-82884945D02*
G75*
G03*
X113000813Y-82885372I684001J1534993D01*
G01*
X110637771Y-81349945D02*
G75*
G03*
X110783015Y-82033263I1679992J-1D01*
G01*
X110782771Y-80665945D02*
G75*
G03*
X110637518Y-81378750I1535001J-683999D01*
G01*
X113852771Y-82033945D02*
G75*
G03*
X113853198Y-80666903I-1534993J684001D01*
G01*
X113997771Y-96589945D02*
G75*
G03*
X113997771Y-96589945I-1680000J0D01*
G01*
X113997771Y-91509945D02*
G75*
G03*
X113997771Y-91509945I-1680000J0D01*
G01*
X113997771Y-86429945D02*
G75*
G03*
X113997771Y-86429945I-1680000J0D01*
G01*
%TO.C,RV3*%
X142533756Y-94288596D02*
X142533756Y-99358596D01*
X132763756Y-94288596D02*
X142533756Y-94288596D01*
X132763756Y-94288596D02*
X132763756Y-99358596D01*
X132763756Y-99358596D02*
X142533756Y-99358596D01*
%TO.C,RV2*%
X128936727Y-87078435D02*
X128936727Y-92148435D01*
X119166727Y-87078435D02*
X128936727Y-87078435D01*
X119166727Y-87078435D02*
X119166727Y-92148435D01*
X119166727Y-92148435D02*
X128936727Y-92148435D01*
%TO.C,C1*%
X127148666Y-82001059D02*
X136388666Y-82001059D01*
X127148666Y-80746059D02*
X127148666Y-82001059D01*
X127148666Y-78161059D02*
X127148666Y-79416059D01*
X136388666Y-78161059D02*
X136388666Y-79416059D01*
X136388666Y-80746059D02*
X136388666Y-82001059D01*
X127148666Y-78161059D02*
X136388666Y-78161059D01*
%TO.C,RV1*%
X119176072Y-94320329D02*
X119176072Y-99390329D01*
X128946072Y-94320329D02*
X128946072Y-99390329D01*
X119176072Y-94320329D02*
X128946072Y-94320329D01*
X119176072Y-99390329D02*
X128946072Y-99390329D01*
%TO.C,RV4*%
X132696931Y-87009156D02*
X142466931Y-87009156D01*
X132696931Y-87009156D02*
X132696931Y-92079156D01*
X132696931Y-92079156D02*
X142466931Y-92079156D01*
X142466931Y-87009156D02*
X142466931Y-92079156D01*
%TD*%
M02*
